<?xml version="1.0" standalone="no"?>
<!DOCTYPE svg PUBLIC "-//W3C//DTD SVG 20010904//EN"
 "http://www.w3.org/TR/2001/REC-SVG-20010904/DTD/svg10.dtd">
<svg version="1.0" xmlns="http://www.w3.org/2000/svg"
 width="512.000000pt" height="512.000000pt" viewBox="0 0 512.000000 512.000000"
 preserveAspectRatio="xMidYMid meet">
<metadata>
Created by potrace 1.14, written by Peter Selinger 2001-2017
</metadata>
<g transform="translate(0.000000,512.000000) scale(0.100000,-0.100000)"
fill="#000000" stroke="none">
<path d="M1897 4267 c-41 -56 -136 -189 -212 -295 -81 -113 -141 -188 -146
-181 -6 11 -115 20 -569 47 -80 5 -146 9 -146 8 -1 -1 -7 -84 -13 -186 -6
-102 -13 -207 -16 -235 -2 -27 -7 -111 -11 -186 l-7 -136 98 -7 c54 -4 100 -4
102 -2 3 3 7 40 10 83 28 450 28 448 45 447 10 -1 78 -5 151 -9 73 -4 180 -10
236 -14 56 -3 104 -4 107 -2 2 2 4 29 4 60 0 107 2 108 86 46 41 -30 78 -55
83 -55 5 0 78 95 161 211 111 153 156 209 167 205 9 -4 103 -70 210 -147 107
-78 198 -137 202 -133 4 5 31 42 60 83 44 61 51 76 39 86 -7 8 -138 104 -290
214 l-277 200 -74 -102z"/>
<path d="M2925 4194 c-154 -96 -294 -183 -312 -194 l-32 -19 52 -85 c29 -47
55 -86 59 -86 4 0 107 61 228 136 186 115 224 134 234 123 7 -8 66 -102 131
-209 65 -107 121 -199 125 -203 6 -6 149 73 178 99 5 4 -370 614 -377 613 -3
-1 -132 -79 -286 -175z"/>
<path d="M4140 3749 c-52 -4 -187 -13 -300 -19 -215 -11 -263 -17 -256 -29 3
-4 6 -45 7 -92 1 -46 3 -89 6 -94 2 -7 60 -7 176 1 345 23 337 23 337 0 0 -12
4 -79 9 -151 5 -71 13 -183 16 -247 l7 -118 101 6 c56 4 103 8 105 9 1 1 -2
67 -8 146 -10 152 -16 240 -25 404 -3 55 -8 121 -11 148 -7 54 8 51 -164 36z"/>
<path d="M765 3030 c-27 -10 -176 -62 -330 -116 -154 -53 -281 -98 -283 -99
-3 -3 235 -695 241 -701 2 -2 39 10 183 60 7 3 -21 95 -76 253 -48 136 -84
251 -81 255 4 4 110 44 236 88 126 45 231 83 233 85 6 6 -59 195 -66 194 -4 0
-29 -8 -57 -19z"/>
<path d="M4321 2920 c-18 -45 -31 -83 -28 -86 3 -3 92 -43 198 -90 106 -47
194 -86 196 -88 2 -2 -37 -96 -87 -210 -49 -113 -90 -209 -90 -212 0 -5 145
-74 156 -74 2 0 9 10 14 23 4 12 62 144 128 294 l119 271 -276 122 c-152 67
-280 124 -286 126 -5 2 -25 -32 -44 -76z"/>
<path d="M1753 2689 c-203 -64 -314 -300 -249 -526 10 -35 20 -63 22 -63 2 0
29 12 61 26 32 14 72 32 89 40 l31 13 -14 53 c-37 141 50 278 177 278 69 0
157 -56 201 -127 l20 -32 87 40 c47 22 88 42 91 44 8 9 -63 105 -113 153 -116
110 -261 146 -403 101z"/>
<path d="M3120 2692 c-81 -27 -118 -49 -177 -104 -50 -48 -120 -144 -112 -153
3 -2 43 -22 91 -43 l86 -40 30 43 c35 49 83 88 131 104 152 50 283 -96 238
-267 l-14 -53 31 -13 c17 -8 57 -26 89 -40 32 -14 59 -26 61 -26 5 0 33 109
41 155 9 58 -11 168 -42 234 -38 80 -123 162 -198 191 -82 31 -184 36 -255 12z"/>
<path d="M4685 2102 c-17 -15 -47 -41 -68 -58 l-37 -31 140 -168 c77 -93 139
-172 138 -176 -2 -3 -77 -69 -168 -144 -91 -76 -169 -141 -174 -146 -5 -4 14
-35 45 -71 29 -35 55 -65 57 -68 1 -2 9 0 17 5 43 31 475 399 475 405 0 7
-350 432 -383 467 -9 9 -19 6 -42 -15z"/>
<path d="M2023 2060 c-65 -39 -73 -112 -19 -166 30 -30 40 -34 86 -34 46 0 56
4 86 34 96 96 -34 239 -153 166z"/>
<path d="M2944 2061 c-63 -38 -70 -128 -13 -175 24 -20 41 -26 81 -26 44 0 54
4 84 34 56 56 44 135 -26 171 -39 20 -89 19 -126 -4z"/>
<path d="M275 1923 c-66 -81 -155 -188 -197 -239 l-77 -93 245 -206 c185 -155
249 -203 258 -196 7 6 34 37 59 69 l45 58 -174 144 c-95 80 -174 149 -174 153
0 5 62 83 138 174 75 91 136 167 135 169 -4 7 -131 114 -135 113 -2 0 -57 -66
-123 -146z"/>
<path d="M2502 1734 c-75 -52 -66 -171 16 -210 104 -49 210 63 157 166 -28 55
-123 79 -173 44z"/>
<path d="M1320 1285 c-152 -25 -313 -92 -430 -178 -66 -50 -143 -125 -138
-136 2 -5 32 -33 68 -64 l65 -55 61 58 c214 200 572 256 909 144 113 -37 266
-118 363 -191 l84 -63 310 0 310 0 57 52 c157 144 333 208 569 208 238 0 447
-65 657 -206 44 -29 94 -64 110 -78 l30 -25 59 70 c58 69 58 70 40 90 -32 36
-236 166 -319 205 -439 203 -902 172 -1219 -81 l-70 -55 -232 0 c-230 0 -233
0 -261 24 -135 113 -384 227 -593 271 -106 23 -325 28 -430 10z"/>
</g>
</svg>
